<svg data-logo="logo" xmlns="http://www.w3.org/2000/svg" viewBox="0 0 214 43">
            <g style="opacity: 1;" id="logogram" transform="translate(0, 1) rotate(0)"><path d="M45.1357 4.50571C45.9335 3.61928 46.82 2.88798 47.7285 2.3118C49.3241 1.31457 51.0083 0.782715 52.7368 0.782715V15.2536C51.4737 10.8658 48.7479 7.0985 45.1357 4.50571ZM66.6537 40.7827H15.3961C6.97508 40.7827 0.171753 33.9572 0.171753 25.5583C0.171753 17.514 6.42106 10.9101 14.3324 10.3561V0.782715C16.1053 0.782715 17.856 1.29241 19.4959 2.3118C20.4044 2.86582 21.2909 3.59712 22.0887 4.43922C25.3463 2.15668 29.2909 0.827036 33.5679 0.827036C33.5679 10.068 30.2438 20.816 19.4294 20.8381H33.4571C33.0582 19.0431 31.4183 17.7135 29.4682 17.6913H37.6233C35.6731 17.6913 34.0332 19.0431 33.6344 20.8603H46.7091C49.3241 20.8603 51.9169 21.37 54.3546 22.3894C56.7701 23.3866 58.9862 24.8714 60.8255 26.7107C62.687 28.5722 64.1496 30.7661 65.1468 33.1816C66.1441 35.575 66.6537 38.1678 66.6537 40.7827ZM22.9529 10.6221C23.2853 11.4863 24.1718 12.4614 25.4127 13.1705C26.6537 13.8797 27.9391 14.1678 28.8477 14.0348C28.5152 13.1705 27.6288 12.1955 26.3878 11.4863C25.1468 10.7772 23.8615 10.4891 22.9529 10.6221ZM41.6122 13.1705C40.3712 13.8797 39.0859 14.1678 38.1773 14.0348C38.5097 13.1705 39.3961 12.1955 40.6371 11.4863C41.8781 10.7772 43.1634 10.4891 44.072 10.6221C43.7618 11.4863 42.8532 12.4614 41.6122 13.1705Z" fill="#3257D2"></path></g>
            <g style="opacity: 1;" id="logotype" transform="translate(70, 5.5)"><path fill="#000000" d="M12.41 31.16L12.41 31.16Q10.70 31.39 9.29 31Q7.88 30.61 6.77 29.79Q5.66 28.97 4.86 27.84Q4.05 26.70 3.55 25.41L3.55 25.41Q3.20 22.76 3.74 20.59Q4.29 18.42 5.34 16.59Q6.40 14.75 7.75 13.15Q9.09 11.55 10.34 10.06L10.34 10.06Q10.62 10.18 10.79 10.06Q10.97 9.95 11.11 9.75Q11.24 9.55 11.42 9.36Q11.59 9.16 11.83 9.09L11.83 9.09Q11.98 8.73 12.24 8.50Q12.49 8.27 12.79 8.05Q13.08 7.84 13.33 7.60Q13.59 7.37 13.78 7.02L13.78 7.02Q14.17 6.94 14.46 6.74Q14.76 6.55 15.01 6.31Q15.27 6.08 15.54 5.88Q15.81 5.69 16.20 5.57L16.20 5.57L16.20 5.06Q17.06 4.67 17.45 4.20Q17.84 3.73 18.39 2.99L18.39 2.99Q18.82 2.95 19.07 2.95Q19.33 2.95 19.88 2.88L19.88 2.88Q20.23 2.21 20.54 1.90Q20.85 1.59 21.44 1.20L21.44 1.20Q22.02 1.51 22.69 1.57Q23.35 1.63 23.90 2.17L23.90 2.17Q23.94 2.64 24.17 2.89Q24.41 3.15 24.68 3.36Q24.95 3.58 25.23 3.81Q25.50 4.05 25.58 4.48L25.58 4.48Q25.77 4.48 25.83 4.40Q25.89 4.32 26.09 4.36L26.09 4.36Q26.16 4.67 26.24 4.87Q26.32 5.06 26.42 5.22Q26.52 5.38 26.61 5.57Q26.71 5.77 26.79 6.04L26.79 6.04Q26.59 6.51 26.44 7.04Q26.28 7.56 25.81 7.76L25.81 7.76Q25.81 8.07 26.05 8.09Q26.28 8.11 26.32 8.38L26.32 8.38Q26.36 8.73 26.20 8.97L26.20 8.97Q27.30 10.80 28.20 12.82Q29.09 14.83 30.23 16.66L30.23 16.66Q30.15 17.21 30.29 17.74Q30.42 18.27 30.64 18.77Q30.85 19.28 31.05 19.79Q31.24 20.30 31.32 20.80L31.32 20.80Q31.40 21.47 31.32 22.23Q31.24 22.99 31.01 23.70Q30.77 24.40 30.38 25.00Q29.99 25.61 29.48 25.92L29.48 25.92Q28.86 26.70 27.92 27.19Q26.98 27.68 26.20 28.34L26.20 28.34Q25.66 28.66 25.03 28.79Q24.41 28.93 23.74 29.09L23.74 29.09Q23.23 29.40 22.53 29.69Q21.83 29.98 21.09 30.22Q20.34 30.45 19.60 30.59Q18.86 30.73 18.27 30.65L18.27 30.65Q16.87 31.16 15.54 31.35Q14.21 31.55 12.41 31.16ZM12.92 16.94L12.92 16.94Q12.53 17.84 12.00 18.56Q11.48 19.28 10.97 20.02Q10.46 20.77 10.09 21.61Q9.72 22.45 9.68 23.58L9.68 23.58Q10.46 24.24 11.54 24.38Q12.61 24.52 13.74 24.42Q14.88 24.32 16.01 24.13Q17.14 23.93 18.04 23.93L18.04 23.93Q18.04 23.58 18.35 23.58L18.35 23.58Q19.99 23.42 21.40 22.66Q22.80 21.90 24.33 21.12L24.33 21.12Q24.52 20.65 24.84 20.30Q25.15 19.95 25.19 19.28L25.19 19.28Q24.99 18.93 24.93 18.70Q24.88 18.46 24.88 17.99L24.88 17.99Q23.86 16.59 23.12 14.93Q22.38 13.27 21.40 11.78L21.40 11.78Q21.32 11.98 21.09 12.17Q20.85 12.37 20.58 12.09L20.58 12.09Q20.46 12.48 20.23 12.62Q19.99 12.76 19.70 12.76Q19.41 12.76 19.11 12.64Q18.82 12.52 18.59 12.33L18.59 12.33Q17.22 13.42 15.87 14.44Q14.52 15.45 13.43 16.82L13.43 16.82Q13.23 16.94 13.20 16.90Q13.16 16.86 12.92 16.94ZM33.86 27.64L33.86 27.64Q33.66 27.68 33.51 27.35Q33.35 27.02 33.16 26.70L33.16 26.70L33.59 26.70Q33.31 25.84 33.45 25.12Q33.59 24.40 33.78 23.71Q33.98 23.03 34.11 22.39Q34.25 21.74 33.98 21.04L33.98 21.04Q34.17 21.16 34.27 20.94Q34.37 20.73 34.43 20.39Q34.48 20.06 34.46 19.69Q34.45 19.32 34.41 19.09L34.41 19.09Q34.91 17.88 35.21 16.59Q35.50 15.30 35.73 14.03Q35.97 12.76 36.26 11.57Q36.55 10.38 37.02 9.32L37.02 9.32Q37.57 9.24 38.18 9.46Q38.78 9.67 38.98 9.98L38.98 9.98Q40.19 9.05 41.13 7.72Q42.06 6.39 43.02 5.12Q43.98 3.85 45.19 2.88Q46.40 1.90 48.20 1.70L48.20 1.70Q49.13 2.37 50.30 3.13Q51.48 3.89 52.22 5.02L52.22 5.02Q52.53 5.22 52.82 5.43Q53.12 5.65 53.43 5.84L53.43 5.84L53.43 6.43Q53.98 6.94 54.35 7.62Q54.72 8.30 55.01 9.07Q55.30 9.83 55.58 10.61Q55.85 11.39 56.20 12.05L56.20 12.05Q56.13 12.29 56.14 12.46Q56.16 12.64 56.22 12.82Q56.28 12.99 56.32 13.21Q56.36 13.42 56.36 13.73L56.36 13.73Q56.20 15.80 55.01 17.07Q53.82 18.34 52.12 19.14Q50.42 19.95 48.51 20.51Q46.59 21.08 45.03 21.74L45.03 21.74Q45.03 21.90 45.21 21.90Q45.38 21.90 45.30 22.13L45.30 22.13Q46.48 22.84 47.12 23.27Q47.77 23.70 48.33 23.99Q48.90 24.28 49.58 24.48Q50.27 24.67 51.48 24.95L51.48 24.95Q52.69 25.22 53.37 25.39Q54.05 25.57 54.60 25.67Q55.15 25.77 55.77 25.84Q56.40 25.92 57.45 26.04L57.45 26.04Q57.88 26.47 58.16 27.05Q58.43 27.64 58.55 28.23Q58.66 28.81 58.61 29.34Q58.55 29.87 58.27 30.18L58.27 30.18Q58.31 30.34 58.49 30.32Q58.66 30.30 58.86 30.34L58.86 30.34Q58.59 30.53 58.39 30.80Q58.20 31.08 58 31.35Q57.80 31.63 57.55 31.86Q57.30 32.09 56.91 32.13L56.91 32.13Q55.50 32.68 53.31 32.17Q51.13 31.66 47.73 30.38L47.73 30.38Q46.05 29.75 44.99 29.24Q43.94 28.73 43.16 28.25Q42.38 27.76 41.71 27.19Q41.05 26.63 40.19 25.84L40.19 25.84Q40.07 25.88 40.05 26Q40.03 26.12 39.91 26.16L39.91 26.16Q39.72 27.72 39.31 28.70Q38.90 29.67 38.12 30.69L38.12 30.69Q37.49 30.57 37.28 30.80Q37.06 31.04 36.75 31.23L36.75 31.23Q36.36 31.31 36.16 31.21Q35.97 31.12 35.81 31Q35.66 30.88 35.46 30.77Q35.27 30.65 34.84 30.69L34.84 30.69Q34.72 30.34 34.60 30.00Q34.48 29.67 33.98 29.71L33.98 29.71Q34.09 29.36 34.05 29.11Q34.02 28.85 33.94 28.64Q33.86 28.42 33.80 28.19Q33.74 27.95 33.86 27.64ZM46.91 9.79L46.91 9.79Q46.40 10.53 45.77 11.14Q45.15 11.74 44.54 12.39Q43.94 13.03 43.47 13.79Q43 14.55 42.80 15.61L42.80 15.61Q44.45 15.41 46.24 14.69Q48.04 13.97 49.64 13.30L49.64 13.30Q49.45 11.86 48.63 10.98Q47.80 10.10 46.91 9.79ZM58.08 31.47L58.08 31.47Q57.53 31.12 57.20 30.57Q56.87 30.02 56.65 29.40Q56.44 28.77 56.30 28.09Q56.16 27.41 56.01 26.78L56.01 26.78Q56.01 26.23 56.24 25.98Q56.48 25.73 56.75 25.49L56.75 25.49Q57.69 25.45 58.43 25.34Q59.17 25.22 59.88 25.10Q60.58 24.98 61.28 24.89Q61.98 24.79 62.80 24.79L62.80 24.79Q63.39 23.58 63.90 22.46Q64.41 21.35 64.88 20.34L64.88 20.34Q65.11 19.36 65.48 18.52Q65.85 17.68 66.20 16.92Q66.55 16.16 66.83 15.39Q67.10 14.63 67.18 13.77L67.18 13.77Q67.65 12.41 68.02 11.25Q68.39 10.10 68.59 8.50L68.59 8.50Q67.10 8.73 66.20 8.95Q65.30 9.16 64.91 9.36L64.91 9.36Q64.13 9.32 63.68 9.05Q63.23 8.77 62.96 8.38Q62.69 7.99 62.49 7.48Q62.30 6.98 62.02 6.43L62.02 6.43Q62.18 6.08 62.10 5.39Q62.02 4.71 61.63 4.40L61.63 4.40Q61.95 4.32 62.10 3.87Q62.26 3.42 62.14 3.19L62.14 3.19Q62.80 2.99 63.55 2.93Q64.29 2.88 65.01 2.82Q65.73 2.76 66.40 2.66Q67.06 2.56 67.53 2.25L67.53 2.25Q69.56 2.17 71.77 2.09Q73.98 2.02 75.85 1.90L75.85 1.90Q76.55 2.13 77.47 2.13Q78.39 2.13 79.31 2.25Q80.23 2.37 80.95 2.76Q81.67 3.15 81.95 4.13L81.95 4.13Q82.53 4.20 82.82 4.44Q83.12 4.67 83.20 5.00Q83.27 5.34 83.25 5.75Q83.23 6.16 83.23 6.55L83.23 6.55Q82.61 7.02 81.65 7.31Q80.70 7.60 79.56 7.78Q78.43 7.95 77.20 8.01Q75.97 8.07 74.80 8.11L74.80 8.11Q74.60 9.40 74.11 11.14Q73.63 12.88 73.12 14.54Q72.61 16.20 72.24 17.50Q71.87 18.81 71.91 19.20L71.91 19.20Q71.52 20.10 71.26 20.73Q71.01 21.35 70.79 21.90Q70.58 22.45 70.36 22.97Q70.15 23.50 69.84 24.16L69.84 24.16L72.49 24.16Q72.57 24.59 72.84 24.75Q73.12 24.91 73.43 25.02Q73.74 25.14 74.00 25.32Q74.25 25.49 74.25 25.88L74.25 25.88Q74.99 26.08 75.19 26.47Q75.38 26.86 75.29 27.31Q75.19 27.76 74.89 28.23Q74.60 28.70 74.33 29.05L74.33 29.05Q73.98 28.97 73.66 29.22Q73.35 29.48 73.08 29.79L73.08 29.79Q71.95 29.63 70.85 29.75Q69.76 29.87 68.82 29.95L68.82 29.95Q68.63 29.98 68.66 30.16Q68.70 30.34 68.59 30.41L68.59 30.41Q67.38 30.02 66.11 30.10Q64.84 30.18 63.53 30.47Q62.22 30.77 60.85 31.10Q59.48 31.43 58.08 31.47ZM81.55 31.55L81.55 31.55Q81.16 31.55 80.34 31.43L80.34 31.43Q79.72 30.77 79.23 29.61Q78.74 28.46 78.49 27.15Q78.23 25.84 78.25 24.54Q78.27 23.23 78.70 22.21L78.70 22.21Q78.70 22.17 79.07 21.27Q79.45 20.38 80.03 18.99Q80.62 17.60 81.36 15.90Q82.10 14.20 82.84 12.56Q83.59 10.92 84.27 9.57Q84.95 8.23 85.46 7.48L85.46 7.48Q85.81 6.94 86.11 6.43Q86.40 5.92 86.67 5.49L86.67 5.49Q87.10 4.79 87.47 4.18Q87.84 3.58 88.29 3.09Q88.74 2.60 89.29 2.23Q89.84 1.86 90.62 1.59L90.62 1.59Q91.09 1.78 91.44 2.00Q91.79 2.21 92.06 2.52L92.06 2.52L92.18 3.07Q92.26 3.34 92.43 3.44Q92.61 3.54 92.73 3.54L92.73 3.54Q93.23 3.66 93.61 3.79Q93.98 3.93 94.41 3.97L94.41 3.97Q94.56 4.20 94.70 4.44Q94.84 4.67 94.99 4.87L94.99 4.87Q95.77 6 96.28 7.05Q96.79 8.11 96.28 9.36L96.28 9.36L96.32 9.79Q96.52 10.06 96.52 10.30Q96.52 10.53 96.44 10.96L96.44 10.96Q96.40 11.27 96.38 11.64Q96.36 12.02 96.48 12.45L96.48 12.45L96.75 12.76Q97.38 13.07 97.96 13.07L97.96 13.07Q98.74 13.07 99.37 12.72Q99.99 12.37 100.54 12.02L100.54 12.02Q100.97 11.70 101.34 11.51Q101.71 11.31 102.06 11.23L102.06 11.23Q102.88 10.45 103.57 9.85Q104.25 9.24 104.99 8.62L104.99 8.62Q106.40 7.48 107.73 6.18Q109.05 4.87 109.84 2.91L109.84 2.91Q110.27 2.64 110.81 2.64L110.81 2.64Q111.36 2.64 111.91 2.86Q112.45 3.07 113 3.34L113 3.34Q113.12 3.42 113.21 3.46Q113.31 3.50 113.43 3.58L113.43 3.58Q113.43 4.01 113.78 4.36L113.78 4.36Q113.98 4.52 114.05 4.55Q114.13 4.59 114.21 4.63L114.21 4.63Q114.52 4.83 114.74 4.98Q114.95 5.14 115.07 5.41L115.07 5.41Q115.42 6.47 116.24 7.05L116.24 7.05Q116.16 7.48 116.28 7.89Q116.40 8.30 116.55 8.70L116.55 8.70Q116.63 8.85 116.67 8.99Q116.71 9.13 116.79 9.32L116.79 9.32L115.93 9.24L116.05 10.10Q116.16 10.77 115.95 11.59Q115.73 12.41 115.46 12.88L115.46 12.88Q115.54 14.05 115.54 14.73Q115.54 15.41 115.46 16Q115.38 16.59 115.21 17.11Q115.03 17.64 114.76 18.23L114.76 18.23Q114.91 21.20 114.07 23.66Q113.23 26.12 112.26 28.27L112.26 28.27Q112.14 28.54 112.02 28.77Q111.91 29.01 111.83 29.24L111.83 29.24Q111.40 29.36 111.05 29.52Q110.70 29.67 110.38 29.87L110.38 29.87Q109.95 30.14 109.52 30.32Q109.09 30.49 108.63 30.49L108.63 30.49Q106.75 29.13 106.69 25.77Q106.63 22.41 108.12 17.21L108.12 17.21Q108.39 17.02 108.35 16.63L108.35 16.63L108.35 16.20L107.96 16.16Q107.77 16.16 107.61 16.20Q107.45 16.23 107.38 16.55L107.38 16.55Q106.13 17.45 104.66 18.40Q103.20 19.36 101.63 20.16Q100.07 20.96 98.45 21.49Q96.83 22.02 95.30 22.02L95.30 22.02Q91.40 22.02 89.41 18.03L89.41 18.03L89.05 17.33L88.66 17.95Q88.55 18.15 88.25 18.71Q87.96 19.28 87.67 20.02Q87.38 20.77 87.16 21.55Q86.95 22.33 87.02 22.91L87.02 22.91Q86.55 23.34 86.11 23.89Q85.66 24.44 85.46 25.14L85.46 25.14Q85.38 25.34 85.42 25.51Q85.46 25.69 85.54 25.88L85.54 25.88Q85.50 26.16 85.38 26.27Q85.27 26.39 85.11 26.51L85.11 26.51Q84.91 26.70 84.72 26.92Q84.52 27.13 84.37 27.41L84.37 27.41Q84.29 27.64 84.25 27.89Q84.21 28.15 84.17 28.34L84.17 28.34Q84.17 28.77 84.05 28.93L84.05 28.93Q83.66 29.75 83.37 30.28Q83.08 30.80 82.80 31.08Q82.53 31.35 82.24 31.45Q81.95 31.55 81.55 31.55ZM119.17 29.67L119.17 29.67Q118.86 29.36 118.72 28.93Q118.59 28.50 118.08 28.23L118.08 28.23Q118 27.64 117.86 26.88Q117.73 26.12 117.59 25.32Q117.45 24.52 117.39 23.71Q117.34 22.91 117.45 22.25L117.45 22.25Q117.53 21.90 117.71 21.59Q117.88 21.27 118.06 20.98Q118.23 20.69 118.33 20.38Q118.43 20.06 118.35 19.75L118.35 19.75Q118.59 19.71 118.64 19.50Q118.70 19.28 119.02 19.36L119.02 19.36Q119.29 18.50 119.60 17.76Q119.91 17.02 120.27 16.31Q120.62 15.61 120.99 14.89Q121.36 14.16 121.67 13.27L121.67 13.27Q121.01 12.64 120.71 11.92Q120.42 11.20 120.27 10.45Q120.11 9.71 120.03 8.95Q119.95 8.19 119.72 7.41L119.72 7.41Q120.19 6.70 120.85 6.25Q121.52 5.80 122.32 5.51Q123.12 5.22 124.05 5.04Q124.99 4.87 126.05 4.63L126.05 4.63Q127.92 4.05 129.41 3.71Q130.89 3.38 132.30 3.17Q133.70 2.95 135.23 2.78Q136.75 2.60 138.74 2.25L138.74 2.25Q138.78 2.37 138.88 2.37Q138.98 2.37 139.13 2.37L139.13 2.37Q139.25 2.64 139.56 2.64L139.56 2.64Q139.56 2.52 139.54 2.43Q139.52 2.33 139.52 2.25L139.52 2.25Q139.60 2.25 139.74 2.29Q139.88 2.33 139.97 2.37Q140.07 2.41 140.15 2.35Q140.23 2.29 140.19 2.09L140.19 2.09Q140.66 2.91 141.40 3.44Q142.14 3.97 143.04 4.36L143.04 4.36Q143.08 4.71 143.06 4.87Q143.04 5.02 143 5.16Q142.96 5.30 142.96 5.47Q142.96 5.65 143.04 5.96L143.04 5.96Q142.41 7.02 141.61 7.60Q140.81 8.19 139.91 8.50Q139.02 8.81 138.02 8.97Q137.02 9.13 135.99 9.30Q134.95 9.48 133.90 9.79Q132.84 10.10 131.83 10.73L131.83 10.73Q131.52 10.61 131.26 10.63Q131.01 10.65 130.73 10.73Q130.46 10.80 130.13 10.88Q129.80 10.96 129.33 10.88L129.33 10.88Q129.02 11.16 128.61 11.27Q128.20 11.39 127.77 11.51L127.77 11.51Q127.96 11.94 127.94 12.37Q127.92 12.80 128.04 13.11L128.04 13.11Q129.68 13.27 131.67 13.09Q133.66 12.91 135.58 12.84L135.58 12.84Q135.62 13.03 135.54 13.11Q135.46 13.19 135.46 13.38L135.46 13.38Q135.81 13.62 136.13 13.97Q136.44 14.32 136.77 14.65Q137.10 14.98 137.45 15.20Q137.80 15.41 138.27 15.38L138.27 15.38Q138.47 15.77 138.55 16.20Q138.63 16.63 138.43 17.09L138.43 17.09Q137.65 17.60 136.91 18.13Q136.16 18.66 135.36 19.09Q134.56 19.52 133.63 19.79Q132.69 20.06 131.59 20.02L131.59 20.02Q131.40 20.02 131.26 20.02Q131.13 20.02 130.93 19.87L130.93 19.87Q130.54 20.06 129.89 20.00Q129.25 19.95 128.82 20.14L128.82 20.14Q128.27 19.95 127.55 19.95Q126.83 19.95 126.28 19.75L126.28 19.75Q125.58 20.77 124.95 21.88Q124.33 22.99 123.86 24.24L123.86 24.24Q125.46 24.48 126.52 24.44Q127.57 24.40 128.51 24.28Q129.45 24.16 130.44 24.05Q131.44 23.93 132.88 23.97L132.88 23.97Q133.86 23.50 135.13 23.32Q136.40 23.15 137.49 22.80L137.49 22.80Q137.88 22.91 138.16 23.25Q138.43 23.58 138.68 23.91Q138.94 24.24 139.21 24.48Q139.48 24.71 139.91 24.63L139.91 24.63Q140.11 24.83 140.17 25.10Q140.23 25.38 140.29 25.61Q140.34 25.84 140.46 25.98Q140.58 26.12 140.89 26.08L140.89 26.08Q140.15 27.60 139.23 28.42Q138.31 29.24 137.16 29.69Q136.01 30.14 134.58 30.36Q133.16 30.57 131.40 30.88L131.40 30.88Q130.97 30.96 130.68 30.86Q130.38 30.77 130.07 30.77L130.07 30.77Q128.98 30.96 127.47 31.16Q125.97 31.35 124.45 31.31Q122.92 31.27 121.52 30.92Q120.11 30.57 119.17 29.67Z"></path></g>
            
          </svg>