<svg viewBox="0 0 165 41" xmlns="http://www.w3.org/2000/svg" data-logo="logo">
          <g transform="translate(0, 0) rotate(0)" id="logogram"><path fill="#3859FF" d="M45.1357 4.50571C45.9335 3.61928 46.82 2.88798 47.7285 2.3118C49.3241 1.31457 51.0083 0.782715 52.7368 0.782715V15.2536C51.4737 10.8658 48.7479 7.0985 45.1357 4.50571ZM66.6537 40.7827H15.3961C6.97508 40.7827 0.171753 33.9572 0.171753 25.5583C0.171753 17.514 6.42106 10.9101 14.3324 10.3561V0.782715C16.1053 0.782715 17.856 1.29241 19.4959 2.3118C20.4044 2.86582 21.2909 3.59712 22.0887 4.43922C25.3463 2.15668 29.2909 0.827036 33.5679 0.827036C33.5679 10.068 30.2438 20.816 19.4294 20.8381H33.4571C33.0582 19.0431 31.4183 17.7135 29.4682 17.6913H37.6233C35.6731 17.6913 34.0332 19.0431 33.6344 20.8603H46.7091C49.3241 20.8603 51.9169 21.37 54.3546 22.3894C56.7701 23.3866 58.9862 24.8714 60.8255 26.7107C62.687 28.5722 64.1496 30.7661 65.1468 33.1816C66.1441 35.575 66.6537 38.1678 66.6537 40.7827ZM22.9529 10.6221C23.2853 11.4863 24.1718 12.4614 25.4127 13.1705C26.6537 13.8797 27.9391 14.1678 28.8477 14.0348C28.5152 13.1705 27.6288 12.1955 26.3878 11.4863C25.1468 10.7772 23.8615 10.4891 22.9529 10.6221ZM41.6122 13.1705C40.3712 13.8797 39.0859 14.1678 38.1773 14.0348C38.5097 13.1705 39.3961 12.1955 40.6371 11.4863C41.8781 10.7772 43.1634 10.4891 44.072 10.6221C43.7618 11.4863 42.8532 12.4614 41.6122 13.1705Z"></path></g>
          <g transform="translate(73, 2.5)" id="logotype"><path d="M14.24 35.14L14.24 35.14Q12.73 35.34 11.50 35Q10.27 34.66 9.30 33.94Q8.32 33.22 7.62 32.23Q6.92 31.24 6.48 30.11L6.48 30.11Q6.17 27.79 6.65 25.89Q7.13 23.99 8.05 22.39Q8.97 20.78 10.15 19.38Q11.33 17.98 12.43 16.68L12.43 16.68Q12.67 16.78 12.82 16.68Q12.97 16.58 13.09 16.41Q13.21 16.24 13.37 16.06Q13.52 15.89 13.72 15.83L13.72 15.83Q13.86 15.52 14.08 15.31Q14.31 15.11 14.56 14.92Q14.82 14.73 15.04 14.53Q15.26 14.32 15.43 14.01L15.43 14.01Q15.78 13.95 16.03 13.77Q16.29 13.60 16.51 13.40Q16.73 13.19 16.97 13.02Q17.21 12.85 17.55 12.75L17.55 12.75L17.55 12.30Q18.30 11.96 18.65 11.55Q18.99 11.14 19.47 10.49L19.47 10.49Q19.84 10.46 20.06 10.46Q20.29 10.46 20.77 10.39L20.77 10.39Q21.07 9.81 21.35 9.54Q21.62 9.26 22.13 8.92L22.13 8.92Q22.65 9.19 23.23 9.25Q23.81 9.30 24.29 9.78L24.29 9.78Q24.32 10.19 24.53 10.41Q24.73 10.63 24.97 10.82Q25.21 11.01 25.45 11.21Q25.69 11.42 25.76 11.79L25.76 11.79Q25.93 11.79 25.98 11.72Q26.03 11.66 26.20 11.69L26.20 11.69Q26.27 11.96 26.34 12.13Q26.41 12.30 26.49 12.44Q26.58 12.58 26.66 12.75Q26.75 12.92 26.82 13.16L26.82 13.16Q26.64 13.57 26.51 14.03Q26.37 14.49 25.96 14.66L25.96 14.66Q25.96 14.94 26.17 14.95Q26.37 14.97 26.41 15.21L26.41 15.21Q26.44 15.52 26.30 15.72L26.30 15.72Q27.26 17.33 28.05 19.09Q28.83 20.85 29.82 22.46L29.82 22.46Q29.75 22.93 29.87 23.40Q29.99 23.86 30.18 24.30Q30.37 24.75 30.54 25.19Q30.71 25.63 30.78 26.08L30.78 26.08Q30.85 26.66 30.78 27.33Q30.71 27.99 30.51 28.61Q30.30 29.22 29.96 29.75Q29.62 30.28 29.17 30.56L29.17 30.56Q28.63 31.24 27.81 31.67Q26.99 32.09 26.30 32.68L26.30 32.68Q25.82 32.95 25.28 33.07Q24.73 33.19 24.15 33.33L24.15 33.33Q23.71 33.60 23.09 33.85Q22.47 34.11 21.83 34.32Q21.18 34.52 20.53 34.64Q19.88 34.76 19.36 34.69L19.36 34.69Q18.13 35.14 16.97 35.31Q15.81 35.48 14.24 35.14ZM14.68 22.70L14.68 22.70Q14.34 23.48 13.88 24.11Q13.42 24.75 12.97 25.40Q12.53 26.04 12.20 26.78Q11.88 27.51 11.84 28.51L11.84 28.51Q12.53 29.09 13.47 29.21Q14.41 29.33 15.40 29.24Q16.39 29.16 17.38 28.98Q18.37 28.81 19.16 28.81L19.16 28.81Q19.16 28.51 19.43 28.51L19.43 28.51Q20.87 28.37 22.10 27.70Q23.33 27.04 24.66 26.35L24.66 26.35Q24.83 25.94 25.11 25.63Q25.38 25.33 25.41 24.75L25.41 24.75Q25.24 24.44 25.19 24.23Q25.14 24.03 25.14 23.62L25.14 23.62Q24.25 22.39 23.60 20.94Q22.95 19.48 22.10 18.18L22.10 18.18Q22.03 18.35 21.83 18.53Q21.62 18.70 21.38 18.46L21.38 18.46Q21.28 18.80 21.07 18.92Q20.87 19.04 20.61 19.04Q20.36 19.04 20.10 18.94Q19.84 18.83 19.64 18.66L19.64 18.66Q18.44 19.62 17.26 20.51Q16.08 21.40 15.13 22.59L15.13 22.59Q14.96 22.70 14.92 22.66Q14.89 22.63 14.68 22.70ZM37.55 31.45L37.55 31.45Q37.17 32.81 36.88 33.51Q36.59 34.21 36.01 34.97L36.01 34.97Q35.57 34.90 35.39 35.07Q35.22 35.24 35.02 35.38L35.02 35.38Q34.71 35.44 34.57 35.38Q34.44 35.31 34.33 35.22Q34.23 35.14 34.08 35.05Q33.92 34.97 33.62 34.97L33.62 34.97Q33.55 34.69 33.46 34.45Q33.38 34.21 33.00 34.28L33.00 34.28Q33.07 34.01 33.04 33.82Q33.00 33.63 32.95 33.48Q32.90 33.33 32.87 33.17Q32.83 33.02 32.90 32.78L32.90 32.78Q32.73 32.78 32.63 32.54Q32.52 32.30 32.39 32.06L32.39 32.06Q32.49 31.45 32.59 30.90Q32.69 30.35 32.85 29.87Q33.00 29.39 33.10 28.92Q33.21 28.44 33.00 27.92L33.00 27.92Q33.14 28.03 33.21 27.87Q33.28 27.72 33.31 27.46Q33.34 27.21 33.34 26.95Q33.34 26.69 33.31 26.52L33.31 26.52Q33.65 25.63 33.87 24.69Q34.10 23.75 34.28 22.83Q34.47 21.91 34.68 21.02Q34.88 20.13 35.22 19.38L35.22 19.38Q35.60 19.31 36.06 19.47Q36.52 19.62 36.63 19.86L36.63 19.86Q37.51 19.17 38.20 18.20Q38.88 17.23 39.60 16.30Q40.32 15.38 41.19 14.66Q42.06 13.95 43.39 13.81L43.39 13.81Q44.08 14.32 44.91 14.85Q45.75 15.38 46.30 16.24L46.30 16.24Q46.57 16.37 46.76 16.53Q46.95 16.68 47.22 16.85L47.22 16.85L47.22 17.26Q47.63 17.64 47.89 18.13Q48.14 18.63 48.35 19.19Q48.55 19.76 48.76 20.32Q48.96 20.88 49.24 21.40L49.24 21.40Q49.17 21.57 49.17 21.69Q49.17 21.81 49.22 21.94Q49.27 22.08 49.31 22.22Q49.34 22.35 49.31 22.59L49.31 22.59Q49.20 24.10 48.33 25.02Q47.46 25.94 46.23 26.54Q45.00 27.14 43.60 27.55Q42.20 27.96 41.07 28.44L41.07 28.44Q41.07 28.57 41.19 28.57Q41.31 28.57 41.27 28.75L41.27 28.75Q42.09 29.26 42.57 29.57Q43.05 29.87 43.48 30.08Q43.91 30.28 44.40 30.44Q44.90 30.59 45.79 30.80L45.79 30.80Q46.67 31.00 47.17 31.12Q47.67 31.24 48.08 31.33Q48.49 31.41 48.91 31.46Q49.34 31.51 50.13 31.58L50.13 31.58Q50.43 31.89 50.66 32.32Q50.88 32.74 50.95 33.17Q51.01 33.60 50.98 33.99Q50.95 34.38 50.74 34.62L50.74 34.62Q50.78 34.73 50.90 34.71Q51.01 34.69 51.15 34.73L51.15 34.73Q50.95 34.86 50.81 35.07Q50.67 35.27 50.54 35.48Q50.40 35.68 50.23 35.84Q50.06 35.99 49.75 36.03L49.75 36.03Q48.69 36.44 47.08 36.08Q45.48 35.72 43.02 34.76L43.02 34.76Q41.79 34.28 41.02 33.92Q40.25 33.56 39.68 33.21Q39.12 32.85 38.66 32.44Q38.20 32.03 37.55 31.45ZM42.44 19.72L42.44 19.72Q42.06 20.27 41.60 20.71Q41.14 21.16 40.71 21.62Q40.28 22.08 39.94 22.64Q39.60 23.21 39.46 23.96L39.46 23.96Q40.66 23.82 41.96 23.29Q43.26 22.76 44.42 22.29L44.42 22.29Q44.28 21.23 43.68 20.58Q43.08 19.93 42.44 19.72ZM58.23 32.61L58.23 32.61Q58.40 33.63 58.11 34.21Q57.82 34.79 57.29 35.09Q56.76 35.38 56.07 35.41Q55.39 35.44 54.77 35.34L54.77 35.34Q54.43 34.86 54.16 34.15Q53.89 33.43 53.65 32.66Q53.41 31.89 53.22 31.14Q53.03 30.39 52.89 29.80L52.89 29.80Q53.07 29.39 53.12 28.86Q53.17 28.33 53.19 27.79Q53.20 27.24 53.22 26.68Q53.24 26.11 53.30 25.60L53.30 25.60Q53.54 24.17 54.01 22.87Q54.47 21.57 54.74 20.17L54.74 20.17Q54.81 19.86 54.69 19.58Q54.57 19.31 54.64 19.07L54.64 19.07Q54.67 18.94 54.84 18.88Q55.01 18.83 55.05 18.66L55.05 18.66Q55.15 18.29 55.10 18.05Q55.05 17.81 55.22 17.47L55.22 17.47Q55.39 17.19 55.65 16.66Q55.90 16.13 55.83 15.55L55.83 15.55Q56.14 15.35 56.42 15.07Q56.69 14.80 56.98 14.58Q57.27 14.36 57.63 14.18Q57.99 14.01 58.50 14.01L58.50 14.01Q58.77 14.36 58.86 14.77Q58.94 15.18 59.03 15.59Q59.12 16.00 59.29 16.35Q59.46 16.71 59.87 16.92L59.87 16.92Q59.87 17.19 59.87 17.60Q59.87 18.01 59.90 18.41Q59.94 18.80 60.06 19.12Q60.17 19.45 60.45 19.55L60.45 19.55Q59.83 21.19 59.30 22.80Q58.77 24.40 58.43 26.03Q58.09 27.65 58.00 29.29Q57.92 30.93 58.23 32.61ZM85.84 34.38L85.84 34.38Q85.50 34.56 85.21 34.69Q84.92 34.83 84.54 34.83L84.54 34.83Q83.21 33.84 83.16 31.38Q83.11 28.92 84.20 25.12L84.20 25.12Q84.37 25.02 84.37 24.71L84.37 24.71L84.07 24.37Q83.93 24.37 83.81 24.40Q83.69 24.44 83.62 24.64L83.62 24.64Q82.73 25.29 81.67 25.99Q80.61 26.69 79.47 27.29Q78.32 27.89 77.15 28.27Q75.97 28.64 74.84 28.64L74.84 28.64Q71.97 28.64 70.53 25.74L70.53 25.74L70.26 25.22L69.98 25.67Q69.88 25.81 69.68 26.23Q69.47 26.66 69.27 27.21Q69.06 27.75 68.91 28.32Q68.75 28.88 68.79 29.29L68.79 29.29Q68.48 29.60 68.14 30.01Q67.80 30.42 67.63 30.93L67.63 30.93Q67.56 31.21 67.69 31.45L67.69 31.45Q67.63 31.75 67.39 31.92L67.39 31.92Q67.25 32.09 67.10 32.25Q66.94 32.40 66.84 32.57L66.84 32.57Q66.77 32.74 66.75 32.92Q66.74 33.09 66.70 33.26L66.70 33.26Q66.70 33.50 66.63 33.70L66.63 33.70Q66.05 34.90 65.71 35.26Q65.37 35.62 64.79 35.62L64.79 35.62Q64.52 35.62 63.90 35.51L63.90 35.51Q63.46 35.03 63.10 34.20Q62.74 33.36 62.55 32.40Q62.36 31.45 62.38 30.47Q62.40 29.50 62.70 28.78L62.70 28.78Q62.70 28.75 62.98 28.10Q63.25 27.45 63.68 26.42Q64.11 25.40 64.65 24.15Q65.20 22.90 65.75 21.72Q66.29 20.54 66.79 19.55Q67.28 18.56 67.63 18.05L67.63 18.05Q67.90 17.64 68.12 17.28Q68.34 16.92 68.55 16.58L68.55 16.58Q69.16 15.52 69.73 14.82Q70.29 14.12 71.39 13.71L71.39 13.71Q72.14 14.01 72.48 14.42L72.48 14.42L72.55 14.80Q72.68 15.14 72.96 15.14L72.96 15.14Q73.33 15.24 73.59 15.33Q73.85 15.42 74.15 15.48L74.15 15.48Q74.39 15.76 74.60 16.13L74.60 16.13Q74.87 16.54 75.13 16.94Q75.38 17.33 75.54 17.72Q75.69 18.12 75.71 18.53Q75.73 18.94 75.56 19.38L75.56 19.38L75.59 19.72Q75.76 20.03 75.66 20.58L75.66 20.58Q75.62 20.82 75.62 21.07Q75.62 21.33 75.69 21.64L75.69 21.64Q76.31 22.11 76.79 22.11L76.79 22.11Q77.33 22.11 77.79 21.86Q78.26 21.60 78.67 21.33L78.67 21.33Q78.94 21.12 79.21 20.97Q79.49 20.82 79.76 20.78L79.76 20.78Q80.38 20.20 80.87 19.76Q81.37 19.31 81.91 18.87L81.91 18.87Q82.94 18.05 83.90 17.09Q84.85 16.13 85.43 14.70L85.43 14.70Q85.78 14.49 86.15 14.49L86.15 14.49Q86.53 14.49 86.94 14.66Q87.35 14.83 87.72 15.00L87.72 15.00Q87.83 15.07 87.91 15.11Q88.00 15.14 88.07 15.18L88.07 15.18Q88.07 15.52 88.34 15.76L88.34 15.76Q88.48 15.86 88.51 15.89Q88.54 15.93 88.61 15.96L88.61 15.96Q89.13 16.24 89.26 16.51L89.26 16.51Q89.50 17.29 90.12 17.71L90.12 17.71Q90.05 18.05 90.13 18.34Q90.22 18.63 90.36 18.94L90.36 18.94Q90.39 19.04 90.42 19.14Q90.46 19.24 90.53 19.38L90.53 19.38L89.88 19.31L89.98 19.96Q90.05 20.44 89.89 21.02Q89.74 21.60 89.54 21.94L89.54 21.94Q89.57 22.83 89.59 23.33Q89.60 23.82 89.54 24.25Q89.47 24.68 89.35 25.05Q89.23 25.43 89.02 25.87L89.02 25.87Q89.16 28.06 88.53 29.86Q87.89 31.65 87.21 33.22L87.21 33.22Q87.14 33.39 87.06 33.56Q86.97 33.74 86.90 33.91L86.90 33.91Q86.60 34.01 86.36 34.13Q86.12 34.25 85.84 34.38Z" fill="#111111"></path></g>
          
        </svg>